<svg width="932" height="44" viewBox="0 0 932 44" fill="none" xmlns="http://www.w3.org/2000/svg">
<path d="M21.1667 17H29.5001" stroke="#080B12" stroke-width="1.25" stroke-linecap="round"/>
<path d="M21.1667 22H29.5001" stroke="#080B12" stroke-width="1.25" stroke-linecap="round"/>
<path d="M21.1667 27H29.5001" stroke="#080B12" stroke-width="1.25" stroke-linecap="round"/>
<path d="M14.5 18.1606C14.5 18.1606 15.3333 18.7038 15.75 19.4999C15.75 19.4999 17 16.3749 18.6667 15.3333" stroke="#080B12" stroke-width="1.25" stroke-linecap="round" stroke-linejoin="round"/>
<path d="M14.5 27.3274C14.5 27.3274 15.3333 27.8706 15.75 28.6667C15.75 28.6667 17 25.5417 18.6667 24.5" stroke="#080B12" stroke-width="1.25" stroke-linecap="round" stroke-linejoin="round"/>
<path d="M74.0002 26.1667H74.0077" stroke="#080B12" stroke-width="1.66667" stroke-linecap="round" stroke-linejoin="round"/>
<path d="M80.6668 19.0833V23.2499C80.6668 26.3926 80.6668 27.964 79.6905 28.9403C78.7142 29.9166 77.1428 29.9166 74.0002 29.9166C70.8575 29.9166 69.2861 29.9166 68.3098 28.9403C67.3335 27.964 67.3335 26.3926 67.3335 23.2499V19.0833" stroke="#080B12" stroke-width="1.25"/>
<path d="M82.3335 20.7499L78.7142 17.2795C76.492 15.1487 75.3809 14.0833 74.0001 14.0833C72.6194 14.0833 71.5083 15.1487 69.2861 17.2795L65.6668 20.7499" stroke="#080B12" stroke-width="1.25" stroke-linecap="round"/>
<path d="M128.917 21.9999C128.917 23.6108 127.611 24.9166 126 24.9166C124.389 24.9166 123.083 23.6108 123.083 21.9999C123.083 20.3891 124.389 19.0833 126 19.0833C127.611 19.0833 128.917 20.3891 128.917 21.9999Z" stroke="#080B12" stroke-width="1.25"/>
<path d="M133.509 23.7471C133.944 23.6298 134.161 23.5712 134.247 23.459C134.333 23.3469 134.333 23.1665 134.333 22.8058V21.1943C134.333 20.8336 134.333 20.6532 134.247 20.5411C134.161 20.4289 133.944 20.3703 133.509 20.253C131.884 19.8147 130.866 18.1154 131.286 16.5007C131.401 16.0567 131.459 15.8346 131.404 15.7044C131.349 15.5742 131.191 15.4845 130.875 15.305L129.437 14.489C129.127 14.3128 128.972 14.2248 128.833 14.2435C128.694 14.2623 128.537 14.419 128.223 14.7323C127.007 15.9454 124.995 15.9454 123.778 14.7322C123.464 14.4189 123.307 14.2622 123.168 14.2434C123.029 14.2247 122.874 14.3128 122.564 14.4889L121.126 15.3049C120.81 15.4844 120.652 15.5741 120.597 15.7043C120.542 15.8345 120.6 16.0566 120.715 16.5007C121.134 18.1154 120.116 19.8147 118.491 20.253C118.056 20.3703 117.838 20.4289 117.752 20.541C117.667 20.6532 117.667 20.8336 117.667 21.1943V22.8058C117.667 23.1665 117.667 23.3469 117.752 23.459C117.838 23.5712 118.056 23.6298 118.491 23.7471C120.116 24.1854 121.133 25.8847 120.714 27.4993C120.598 27.9434 120.541 28.1654 120.596 28.2957C120.651 28.4259 120.809 28.5157 121.125 28.6951L122.562 29.5112C122.873 29.6873 123.028 29.7753 123.167 29.7566C123.306 29.7378 123.463 29.5811 123.777 29.2678C124.994 28.0537 127.007 28.0536 128.224 29.2677C128.538 29.5811 128.695 29.7378 128.834 29.7565C128.973 29.7753 129.129 29.6872 129.439 29.5111L130.876 28.695C131.192 28.5156 131.35 28.4258 131.405 28.2956C131.46 28.1653 131.403 27.9433 131.287 27.4993C130.868 25.8847 131.884 24.1855 133.509 23.7471Z" stroke="#080B12" stroke-width="1.25" stroke-linecap="round"/>
<path d="M184.25 16.5833L183.734 24.9375C183.602 27.0719 183.536 28.1392 183.001 28.9065C182.736 29.2858 182.396 29.606 182.001 29.8466C181.202 30.3333 180.132 30.3333 177.994 30.3333C175.853 30.3333 174.782 30.3333 173.983 29.8457C173.587 29.6047 173.247 29.2839 172.982 28.9039C172.447 28.1354 172.383 27.0667 172.254 24.9293L171.75 16.5833" stroke="#080B12" stroke-width="1.25" stroke-linecap="round"/>
<path d="M170.5 16.5834H185.5M181.38 16.5834L180.811 15.4099C180.433 14.6303 180.244 14.2405 179.918 13.9974C179.846 13.9435 179.769 13.8955 179.689 13.854C179.328 13.6667 178.895 13.6667 178.029 13.6667C177.141 13.6667 176.697 13.6667 176.33 13.8618C176.248 13.9051 176.171 13.955 176.098 14.0111C175.768 14.264 175.584 14.668 175.216 15.4761L174.711 16.5834" stroke="#080B12" stroke-width="1.25" stroke-linecap="round"/>
<path d="M175.917 25.75V20.75" stroke="#080B12" stroke-width="1.25" stroke-linecap="round"/>
<path d="M180.083 25.75V20.75" stroke="#080B12" stroke-width="1.25" stroke-linecap="round"/>
<g clip-path="url(#clip0_1085_795)">
<path fill-rule="evenodd" clip-rule="evenodd" d="M229.44 12.6722C228.764 12.7314 228.349 12.7921 227.883 12.9001C225.608 13.4265 223.591 14.8111 222.276 16.7499C221.211 18.32 220.661 20.1079 220.661 21.9999C220.661 23.9689 221.257 25.8257 222.407 27.4399C223.718 29.2777 225.706 30.6026 227.91 31.1064C229.411 31.4495 231.052 31.4105 232.52 30.997C234.728 30.3748 236.609 28.9818 237.864 27.0399C238.202 26.5156 238.446 26.0382 238.7 25.3999C239.376 23.6994 239.522 21.7278 239.107 19.9099C238.637 17.8557 237.459 15.992 235.8 14.6789C234.402 13.5722 232.772 12.9061 230.98 12.7087C230.706 12.6785 229.653 12.6535 229.44 12.6722ZM229.844 17.3012C229.552 17.3587 229.311 17.6158 229.261 17.9226C229.235 18.0833 229.233 22.2564 229.259 22.4357C229.295 22.6836 229.448 22.8919 229.676 23.0043C229.798 23.0645 229.825 23.0699 230 23.0699C230.175 23.0699 230.202 23.0645 230.324 23.0043C230.552 22.8919 230.705 22.6836 230.741 22.4357C230.767 22.2564 230.765 18.0833 230.739 17.9226C230.688 17.6072 230.449 17.3584 230.14 17.2999C230.02 17.2771 229.965 17.2773 229.844 17.3012ZM229.86 24.5596C229.605 24.592 229.388 24.7084 229.197 24.9155C228.956 25.177 228.866 25.5362 228.951 25.898C229.013 26.163 229.213 26.4276 229.461 26.5745C229.593 26.6521 229.844 26.7199 230 26.7199C230.156 26.7199 230.407 26.6521 230.539 26.5745C230.787 26.4276 230.987 26.163 231.049 25.898C231.134 25.5362 231.044 25.177 230.803 24.9155C230.55 24.6413 230.214 24.5146 229.86 24.5596Z" fill="#080B12"/>
</g>
<path fill-rule="evenodd" clip-rule="evenodd" d="M276.47 16.4697C276.763 16.1768 277.237 16.1768 277.53 16.4697L282 20.9393L286.47 16.4697C286.763 16.1768 287.237 16.1768 287.53 16.4697C287.823 16.7626 287.823 17.2374 287.53 17.5303L283.061 22L287.53 26.4697C287.823 26.7626 287.823 27.2374 287.53 27.5303C287.237 27.8232 286.763 27.8232 286.47 27.5303L282 23.0607L277.53 27.5303C277.237 27.8232 276.763 27.8232 276.47 27.5303C276.177 27.2374 276.177 26.7626 276.47 26.4697L280.939 22L276.47 17.5303C276.177 17.2374 276.177 16.7626 276.47 16.4697Z" fill="#080B12"/>
<defs>
<clipPath id="clip0_1085_795">
<rect width="20" height="20" fill="white" transform="translate(220 12)"/>
</clipPath>
</defs>
</svg>
