<svg width="156" height="40" viewBox="0 0 156 40" fill="none" xmlns="http://www.w3.org/2000/svg">
<g clip-path="url(#clip0_3125_690)">
<path d="M9.15385 13.3584C8.48215 13.3395 7.84452 13.0664 7.3763 12.5973C6.9081 12.1282 6.64615 11.4999 6.64615 10.8459C6.64615 10.1919 6.9081 9.56358 7.3763 9.09446C7.84452 8.62533 8.48215 8.35231 9.15385 8.33331H25.585C26.2567 8.35231 26.8944 8.62533 27.3626 9.09446C27.8307 9.56358 28.0927 10.1919 28.0927 10.8459C28.0927 11.4999 27.8307 12.1282 27.3626 12.5973C26.8944 13.0664 26.2567 13.3395 25.585 13.3584H9.15385ZM2.58271 17.726C3.09352 17.726 3.59286 17.5786 4.01758 17.3024C4.4423 17.0262 4.77334 16.6336 4.96882 16.1743C5.16429 15.715 5.21543 15.2096 5.11578 14.722C5.01613 14.2344 4.77013 13.7865 4.40893 13.435C4.04774 13.0835 3.58754 12.844 3.08657 12.747C2.58557 12.6501 2.06626 12.6998 1.59434 12.8901C1.12241 13.0803 0.71905 13.4025 0.435259 13.8159C0.151469 14.2293 0 14.7152 0 15.2124C0.00173124 15.8779 0.274615 16.5157 0.758778 16.9857C1.24294 17.4557 1.89887 17.7197 2.58271 17.7197V17.726ZM4.93002 26.6075C4.24505 26.6075 3.58809 26.8724 3.10374 27.3438C2.61939 27.8152 2.34731 28.4545 2.34731 29.1212C2.34731 29.7879 2.61939 30.4272 3.10374 30.8986C3.58809 31.3699 4.24505 31.6348 4.93002 31.6348H21.359C22.044 31.6348 22.7009 31.3699 23.1852 30.8986C23.6697 30.4272 23.9417 29.7879 23.9417 29.1212C23.9417 28.4545 23.6697 27.8152 23.1852 27.3438C22.7009 26.8724 22.044 26.6075 21.359 26.6075H4.93002ZM8.68528 17.4715C8.33994 17.4617 7.9961 17.5195 7.67413 17.6413C7.35215 17.7632 7.05855 17.9468 6.81074 18.181C6.56291 18.4153 6.36591 18.6956 6.23139 19.0053C6.09685 19.315 6.02755 19.6478 6.02755 19.9841C6.02755 20.3203 6.09685 20.6531 6.23139 20.9628C6.36591 21.2725 6.56291 21.5528 6.81074 21.7871C7.05855 22.0214 7.35215 22.2049 7.67413 22.3268C7.9961 22.4486 8.33994 22.5064 8.68528 22.4966H21.8276C22.173 22.5064 22.5167 22.4486 22.8388 22.3268C23.1608 22.2049 23.4543 22.0214 23.7021 21.7871C23.9499 21.5528 24.147 21.2725 24.2814 20.9628C24.4159 20.6531 24.4852 20.3203 24.4852 19.9841C24.4852 19.6478 24.4159 19.315 24.2814 19.0053C24.147 18.6956 23.9499 18.4153 23.7021 18.181C23.4543 17.9468 23.1608 17.7632 22.8388 17.6413C22.5167 17.5195 22.173 17.4617 21.8276 17.4715H8.68528ZM27.9323 22.2421C27.4214 22.2417 26.9217 22.3888 26.4967 22.6648C26.0715 22.9409 25.7402 23.3334 25.5445 23.7928C25.3487 24.2522 25.2973 24.7578 25.3969 25.2456C25.4965 25.7334 25.7426 26.1815 26.1039 26.5331C26.4653 26.8848 26.9256 27.1242 27.4269 27.2212C27.9279 27.3181 28.4475 27.2681 28.9194 27.0776C29.3915 26.8871 29.7949 26.5646 30.0784 26.1509C30.362 25.7372 30.5133 25.2509 30.5128 24.7536C30.5137 24.4232 30.4477 24.096 30.3182 23.7905C30.1889 23.4851 29.9991 23.2075 29.7594 22.9736C29.5196 22.7397 29.2348 22.5541 28.9214 22.4275C28.6079 22.3009 28.2719 22.2357 27.9323 22.2357V22.2421Z" fill="#CA3884"/>
</g>
<path d="M50.0462 34.3333V24.68L51.1928 23.1333C51.1573 24.4489 50.8906 25.5867 50.3928 26.5467C49.9128 27.4889 49.2373 28.2178 48.3661 28.7333C47.495 29.2311 46.4728 29.48 45.2995 29.48C44.2862 29.48 43.3617 29.2933 42.5262 28.92C41.6906 28.5289 40.9706 28.0044 40.3662 27.3467C39.7795 26.6711 39.3262 25.88 39.0062 24.9733C38.7039 24.0667 38.5528 23.0889 38.5528 22.04V21.4267C38.5528 20.3778 38.7128 19.4 39.0328 18.4933C39.3706 17.5867 39.8417 16.7956 40.4462 16.12C41.0684 15.4444 41.7973 14.92 42.6328 14.5467C43.4862 14.1556 44.4284 13.96 45.4595 13.96C46.6684 13.96 47.7084 14.2267 48.5795 14.76C49.4684 15.2756 50.1617 16.0311 50.6595 17.0267C51.1573 18.0044 51.4239 19.2044 51.4595 20.6267H50.9528V14.3867H54.3395V34.3333H50.0462ZM46.5528 25.88C47.2106 25.88 47.8062 25.7378 48.3395 25.4533C48.8906 25.1511 49.3261 24.7156 49.6461 24.1467C49.9839 23.5778 50.1528 22.8933 50.1528 22.0933V21.1067C50.1528 20.3244 49.9839 19.6667 49.6461 19.1333C49.3084 18.6 48.8639 18.1911 48.3128 17.9067C47.7617 17.6222 47.175 17.48 46.5528 17.48C45.8239 17.48 45.175 17.6667 44.6062 18.04C44.055 18.3956 43.6195 18.8933 43.2995 19.5333C42.9795 20.1556 42.8195 20.8933 42.8195 21.7467C42.8195 22.5822 42.9795 23.3111 43.2995 23.9333C43.6195 24.5556 44.055 25.0356 44.6062 25.3733C45.175 25.7111 45.8239 25.88 46.5528 25.88ZM62.6095 29.4533C60.9206 29.4533 59.6228 28.9111 58.7161 27.8267C57.8095 26.7244 57.3561 25.0711 57.3561 22.8667V14.3867H61.6228V23.08C61.6228 23.8622 61.845 24.4844 62.2895 24.9467C62.7339 25.4089 63.3295 25.64 64.0761 25.64C64.8406 25.64 65.4628 25.4 65.9428 24.92C66.4228 24.44 66.6628 23.7911 66.6628 22.9733V14.3867H70.9295V29H67.5428V22.84H67.8361C67.8361 24.3156 67.6406 25.5511 67.2495 26.5467C66.8761 27.5244 66.3161 28.2533 65.5695 28.7333C64.8228 29.2133 63.8984 29.4533 62.7961 29.4533H62.6095ZM75.0236 29V14.3867H79.2903V29H75.0236ZM73.077 17.5333V14.3867H79.2903V17.5333H73.077ZM76.677 12.9467C75.877 12.9467 75.2814 12.7422 74.8903 12.3333C74.517 11.9067 74.3303 11.3733 74.3303 10.7333C74.3303 10.0756 74.517 9.54222 74.8903 9.13333C75.2814 8.70667 75.877 8.49333 76.677 8.49333C77.477 8.49333 78.0636 8.70667 78.437 9.13333C78.8281 9.54222 79.0236 10.0756 79.0236 10.7333C79.0236 11.3733 78.8281 11.9067 78.437 12.3333C78.0636 12.7422 77.477 12.9467 76.677 12.9467ZM89.2632 29.5067C88.001 29.5067 86.8988 29.3022 85.9566 28.8933C85.0321 28.4667 84.2588 27.8978 83.6366 27.1867C83.0143 26.4756 82.5521 25.6756 82.2499 24.7867C81.9477 23.88 81.7966 22.9467 81.7966 21.9867V21.48C81.7966 20.4844 81.9566 19.5333 82.2766 18.6267C82.5966 17.7022 83.0677 16.8844 83.6899 16.1733C84.3121 15.4622 85.0855 14.9022 86.0099 14.4933C86.9521 14.0844 88.0277 13.88 89.2366 13.88C90.5521 13.88 91.7166 14.1378 92.7299 14.6533C93.7432 15.1511 94.5521 15.8533 95.1566 16.76C95.761 17.6667 96.0988 18.7067 96.1699 19.88H91.9832C91.9121 19.2222 91.6454 18.6711 91.1832 18.2267C90.7388 17.7644 90.0899 17.5333 89.2366 17.5333C88.5255 17.5333 87.9299 17.7111 87.4499 18.0667C86.9877 18.4222 86.641 18.9111 86.4099 19.5333C86.1788 20.1556 86.0632 20.8933 86.0632 21.7467C86.0632 22.5289 86.1699 23.24 86.3832 23.88C86.5966 24.5022 86.9343 24.9911 87.3966 25.3467C87.8766 25.6844 88.4988 25.8533 89.2632 25.8533C89.8321 25.8533 90.3121 25.7556 90.7032 25.56C91.1121 25.3467 91.4321 25.0622 91.6632 24.7067C91.9121 24.3333 92.0632 23.9067 92.1166 23.4267H96.2766C96.2232 24.6356 95.8854 25.7022 95.2632 26.6267C94.641 27.5333 93.8143 28.2444 92.7832 28.76C91.7521 29.2578 90.5788 29.5067 89.2632 29.5067ZM108.765 29L104.152 22.1733H102.099L108.045 14.3867H112.525L106.925 21.64L106.979 19.56L113.565 29H108.765ZM98.472 29V9.53333H102.739V29H98.472ZM115.026 29V9.53333H119.32V29H115.026ZM113.293 12.68V9.53333H119.32V12.68H113.293ZM123.411 29V14.3867H127.678V29H123.411ZM121.464 17.5333V14.3867H127.678V17.5333H121.464ZM125.064 12.9467C124.264 12.9467 123.669 12.7422 123.278 12.3333C122.904 11.9067 122.718 11.3733 122.718 10.7333C122.718 10.0756 122.904 9.54222 123.278 9.13333C123.669 8.70667 124.264 8.49333 125.064 8.49333C125.864 8.49333 126.451 8.70667 126.824 9.13333C127.216 9.54222 127.411 10.0756 127.411 10.7333C127.411 11.3733 127.216 11.9067 126.824 12.3333C126.451 12.7422 125.864 12.9467 125.064 12.9467ZM136.637 29.4533C134.557 29.4533 132.931 29.0267 131.757 28.1733C130.584 27.32 129.962 26.12 129.891 24.5733H133.677C133.749 25.0356 134.024 25.4533 134.504 25.8267C135.002 26.1822 135.74 26.36 136.717 26.36C137.464 26.36 138.077 26.2356 138.557 25.9867C139.055 25.72 139.304 25.3467 139.304 24.8667C139.304 24.44 139.117 24.1022 138.744 23.8533C138.371 23.5867 137.704 23.4 136.744 23.2933L135.597 23.1867C133.837 23.0089 132.513 22.52 131.624 21.72C130.753 20.92 130.317 19.8978 130.317 18.6533C130.317 17.6222 130.575 16.76 131.091 16.0667C131.606 15.3733 132.317 14.8489 133.224 14.4933C134.149 14.1378 135.197 13.96 136.371 13.96C138.255 13.96 139.775 14.3778 140.931 15.2133C142.086 16.0311 142.691 17.2222 142.744 18.7867H138.957C138.886 18.3067 138.637 17.9067 138.211 17.5867C137.784 17.2489 137.153 17.08 136.317 17.08C135.66 17.08 135.135 17.2044 134.744 17.4533C134.353 17.7022 134.157 18.04 134.157 18.4667C134.157 18.8756 134.326 19.1867 134.664 19.4C135.002 19.6133 135.553 19.7644 136.317 19.8533L137.464 19.96C139.26 20.1556 140.655 20.6533 141.651 21.4533C142.646 22.2533 143.144 23.3289 143.144 24.68C143.144 25.6578 142.877 26.5111 142.344 27.24C141.811 27.9511 141.055 28.5022 140.077 28.8933C139.1 29.2667 137.953 29.4533 136.637 29.4533ZM152.015 29.1867C150.54 29.1867 149.348 29.0089 148.442 28.6533C147.535 28.28 146.868 27.6667 146.442 26.8133C146.033 25.9422 145.828 24.7689 145.828 23.2933V10.44H149.802V23.4533C149.802 24.1467 149.98 24.68 150.335 25.0533C150.708 25.4089 151.233 25.5867 151.908 25.5867H154.068V29.1867H152.015ZM143.615 17.5067V14.3867H154.068V17.5067H143.615Z" fill="#374151"/>
<defs>
<clipPath id="clip0_3125_690">
<rect width="30.5128" height="23.3333" fill="white" transform="translate(0 8.33331)"/>
</clipPath>
</defs>
</svg>
