<svg width="20" height="20" viewBox="0 0 20 20" fill="none" xmlns="http://www.w3.org/2000/svg">
<g clip-path="url(#clip0_3114_663)">
<path fill-rule="evenodd" clip-rule="evenodd" d="M9.43998 0.672189C8.7639 0.731429 8.34938 0.792109 7.88278 0.900069C5.60786 1.42647 3.59126 2.81111 2.2759 4.74989C1.21062 6.32005 0.660522 8.10789 0.660522 9.99989C0.660522 11.9689 1.25678 13.8257 2.40742 15.4399C3.7175 17.2777 5.70576 18.6026 7.90998 19.1064C9.41086 19.4495 11.0523 19.4105 12.52 18.997C14.7279 18.3748 16.609 16.9818 17.8636 15.0399C18.2023 14.5156 18.4457 14.0382 18.6995 13.3999C19.3759 11.6994 19.522 9.72779 19.1065 7.90989C18.637 5.85567 17.4589 3.99197 15.8 2.67891C14.4018 1.57225 12.7721 0.906069 10.98 0.708689C10.706 0.678509 9.65264 0.653549 9.43998 0.672189ZM9.84388 5.30123C9.55192 5.35871 9.31072 5.61583 9.26092 5.92265C9.23486 6.08333 9.23304 10.2564 9.25898 10.4357C9.29482 10.6836 9.44756 10.8919 9.67586 11.0043C9.79826 11.0645 9.82472 11.0699 9.99998 11.0699C10.1752 11.0699 10.2017 11.0645 10.3241 11.0043C10.5524 10.8919 10.7051 10.6836 10.741 10.4357C10.7669 10.2564 10.7651 6.08333 10.739 5.92265C10.6878 5.60721 10.4486 5.35841 10.1401 5.29991C10.0196 5.27707 9.96536 5.27731 9.84388 5.30123ZM9.85954 12.5596C9.60484 12.592 9.38812 12.7084 9.19692 12.9155C8.9555 13.177 8.8655 13.5362 8.95078 13.898C9.01322 14.163 9.213 14.4276 9.4614 14.5745C9.59266 14.6521 9.8437 14.7199 9.99998 14.7199C10.1563 14.7199 10.4073 14.6521 10.5386 14.5745C10.787 14.4276 10.9867 14.163 11.0492 13.898C11.1345 13.5362 11.0445 13.177 10.803 12.9155C10.5499 12.6413 10.214 12.5146 9.85954 12.5596Z" fill="white"/>
</g>
<defs>
<clipPath id="clip0_3114_663">
<rect width="20" height="20" fill="white"/>
</clipPath>
</defs>
</svg>
