<svg width="20" height="20" viewBox="0 0 20 20" fill="none" xmlns="http://www.w3.org/2000/svg">
<path d="M18.3333 6.06951C18.3333 8.27082 16.4676 10.0557 14.1667 10.0557C13.8961 10.056 13.6263 10.031 13.3606 9.98107C13.1692 9.94516 13.0736 9.92724 13.0068 9.93741C12.9401 9.94757 12.8454 9.99791 12.6562 10.0986C12.1208 10.3832 11.4966 10.4838 10.8962 10.3722C11.1244 10.0915 11.2803 9.75474 11.349 9.39374C11.3907 9.17291 11.2875 8.95841 11.1328 8.80141C10.4305 8.08818 10 7.12716 10 6.06951C10 3.86819 11.8657 2.08337 14.1667 2.08337C16.4676 2.08337 18.3333 3.86819 18.3333 6.06951Z" stroke="#C58DE7" stroke-width="1.5" stroke-linejoin="round"/>
<path d="M12.9102 6.25H12.9169M15.4102 6.25H15.4169" stroke="#C58DE7" stroke-width="1.5" stroke-linecap="round"/>
<path d="M6.2516 17.9168H3.93183C3.66242 17.9168 3.39186 17.8789 3.14441 17.7725C2.3389 17.4264 1.93022 16.9694 1.73976 16.6835C1.63139 16.5209 1.64683 16.3137 1.7644 16.1575C2.69765 14.9179 4.8654 14.1693 6.25556 14.1692C7.64572 14.1693 9.80952 14.9179 10.7428 16.1575C10.8604 16.3137 10.8758 16.5209 10.7674 16.6835C10.5769 16.9694 10.1683 17.4264 9.36277 17.7725C9.11527 17.8789 8.84477 17.9168 8.57535 17.9168H6.2516Z" stroke="#C58DE7" stroke-width="1.5" stroke-linecap="round" stroke-linejoin="round"/>
<path d="M8.57118 9.8241C8.57118 11.1002 7.53442 12.1347 6.25555 12.1347C4.97667 12.1347 3.93994 11.1002 3.93994 9.8241C3.93994 8.54802 4.97667 7.51355 6.25555 7.51355C7.53442 7.51355 8.57118 8.54802 8.57118 9.8241Z" stroke="#C58DE7" stroke-width="1.5" stroke-linecap="round" stroke-linejoin="round"/>
</svg>
