<svg width="38" height="38" viewBox="0 0 38 38" fill="none" xmlns="http://www.w3.org/2000/svg">
<g clip-path="url(#clip0_3249_291)">
<mask id="mask0_3249_291" style="mask-type:luminance" maskUnits="userSpaceOnUse" x="2" y="2" width="34" height="34">
<path d="M36 2H2V36H36V2Z" fill="white"/>
</mask>
<g mask="url(#mask0_3249_291)">
<path fill-rule="evenodd" clip-rule="evenodd" d="M19 7.71963C17.7715 7.71963 16.7757 8.71548 16.7757 9.94393H11.0561C11.0561 5.55662 14.6127 2 19 2C23.3874 2 26.9439 5.55662 26.9439 9.94393C26.9439 14.3312 23.3874 17.8878 19 17.8878V12.1682C20.2284 12.1682 21.2243 11.1724 21.2243 9.94393C21.2243 8.71548 20.2284 7.71963 19 7.71963ZM30.2803 19C30.2803 17.7715 29.2845 16.7757 28.0561 16.7757V11.0561C32.4434 11.0561 36 14.6127 36 19C36 23.3874 32.4434 26.9439 28.0561 26.9439C23.6687 26.9439 20.1121 23.3874 20.1121 19H25.8318C25.8318 20.2284 26.8277 21.2243 28.0561 21.2243C29.2845 21.2243 30.2803 20.2284 30.2803 19ZM9.94393 21.2243C8.71548 21.2243 7.71963 20.2284 7.71963 19C7.71963 17.7715 8.71548 16.7757 9.94393 16.7757C11.1724 16.7757 12.1682 17.7715 12.1682 19H17.8878C17.8878 14.6127 14.3312 11.0561 9.94393 11.0561C5.55662 11.0561 2 14.6127 2 19C2 23.3874 5.55662 26.9439 9.94393 26.9439V21.2243ZM19 30.2803C20.2284 30.2803 21.2243 29.2845 21.2243 28.0561H26.9439C26.9439 32.4434 23.3874 36 19 36C14.6127 36 11.0561 32.4434 11.0561 28.0561C11.0561 23.6687 14.6127 20.1121 19 20.1121V25.8318C17.7715 25.8318 16.7757 26.8277 16.7757 28.0561C16.7757 29.2845 17.7715 30.2803 19 30.2803Z" fill="#C58DE7"/>
</g>
</g>
<defs>
<clipPath id="clip0_3249_291">
<rect width="34" height="34" fill="white" transform="translate(2 2)"/>
</clipPath>
</defs>
</svg>
