<svg xmlns="http://www.w3.org/2000/svg"  viewBox="0 0 48 48" width="48px" height="48px"><linearGradient id="SVGID_1_" x1="38.522" x2="9.478" y1="6.408" y2="35.453" gradientUnits="userSpaceOnUse"><stop offset="0" stop-color="#60affe"/><stop offset=".033" stop-color="#6ab4fe"/><stop offset=".197" stop-color="#97cbfe"/><stop offset=".362" stop-color="#bddeff"/><stop offset=".525" stop-color="#daecff"/><stop offset=".687" stop-color="#eef7ff"/><stop offset=".846" stop-color="#fbfdff"/><stop offset="1" stop-color="#fff"/></linearGradient><path fill="url(#SVGID_1_)" d="M37.335,6.066H10.665c-1.167,0-2.086,0.967-1.994,2.099l2.288,28.126c0.062,0.763,0.578,1.42,1.319,1.678	l11.047,3.851c0.436,0.152,0.913,0.152,1.349,0l11.047-3.851c0.741-0.258,1.257-0.915,1.319-1.678l2.288-28.126	C39.421,7.033,38.502,6.066,37.335,6.066z"/><path fill="none" stroke="#2e9bfe" stroke-linecap="round" stroke-linejoin="round" stroke-miterlimit="10" stroke-width="3" d="M9.473,18.79l1.486,18.785c0.062,0.784,0.578,1.46,1.319,1.725l11.047,3.959c0.436,0.156,0.913,0.156,1.349,0	l11.047-3.959c0.741-0.265,1.257-0.941,1.319-1.725l0.344-4.35"/><path fill="none" stroke="#2e9bfe" stroke-linecap="round" stroke-linejoin="round" stroke-miterlimit="10" stroke-width="3" d="M37.959,25.968l1.37-17.31C39.421,7.495,38.502,6.5,37.335,6.5H10.665c-1.167,0-2.086,0.995-1.994,2.158	l0.277,3.505"/><polyline fill="none" stroke="#2e9bfe" stroke-linecap="round" stroke-linejoin="round" stroke-miterlimit="10" stroke-width="3" points="17.702,13.439 32.149,13.439 31.198,32.219 24.543,34.561 17.616,31.927 17.616,29.683"/><line x1="20.374" x2="31.676" y1="23.004" y2="23.004" fill="none" stroke="#2e9bfe" stroke-linecap="round" stroke-linejoin="round" stroke-miterlimit="10" stroke-width="3"/></svg>