<svg width="107" height="16" viewBox="0 0 107 16" fill="none" xmlns="http://www.w3.org/2000/svg">
<path d="M2.84 10.8V8.68H8.76C9.46667 8.68 10.0267 8.49333 10.44 8.12C10.8533 7.73333 11.06 7.2 11.06 6.52C11.06 5.81333 10.8533 5.27333 10.44 4.9C10.0267 4.52667 9.46667 4.34 8.76 4.34H3.16V15H0.5V2.06H8.52C9.24 2.06 9.91333 2.14667 10.54 2.32C11.18 2.49333 11.7333 2.76 12.2 3.12C12.68 3.48 13.0533 3.94 13.32 4.5C13.5867 5.06 13.72 5.73333 13.72 6.52C13.72 7.29333 13.5867 7.95333 13.32 8.5C13.0533 9.04667 12.68 9.49333 12.2 9.84C11.7333 10.1733 11.18 10.42 10.54 10.58C9.91333 10.7267 9.24 10.8 8.52 10.8H2.84ZM20.3916 15.22C19.4049 15.22 18.5049 15.0067 17.6916 14.58C16.8916 14.14 16.2516 13.5333 15.7716 12.76C15.3049 11.9733 15.0716 11.0667 15.0716 10.04C15.0716 8.98667 15.3116 8.07333 15.7916 7.3C16.2716 6.52667 16.9182 5.92667 17.7316 5.5C18.5582 5.06 19.4916 4.84 20.5316 4.84C21.6782 4.84 22.5982 5.07333 23.2916 5.54C23.9982 5.99333 24.5116 6.61333 24.8316 7.4C25.1516 8.18667 25.3116 9.06667 25.3116 10.04C25.3116 10.6267 25.2182 11.2267 25.0316 11.84C24.8449 12.44 24.5582 13 24.1716 13.52C23.7849 14.0267 23.2782 14.44 22.6516 14.76C22.0249 15.0667 21.2716 15.22 20.3916 15.22ZM21.2316 13.22C22.0182 13.22 22.6982 13.0867 23.2716 12.82C23.8449 12.5533 24.2849 12.18 24.5916 11.7C24.8982 11.22 25.0516 10.6667 25.0516 10.04C25.0516 9.36 24.8916 8.78667 24.5716 8.32C24.2649 7.84 23.8249 7.48 23.2516 7.24C22.6916 6.98667 22.0182 6.86 21.2316 6.86C20.1249 6.86 19.2649 7.15333 18.6516 7.74C18.0382 8.31333 17.7316 9.08 17.7316 10.04C17.7316 10.68 17.8782 11.24 18.1716 11.72C18.4649 12.1867 18.8716 12.5533 19.3916 12.82C19.9249 13.0867 20.5382 13.22 21.2316 13.22ZM25.0516 5.06H27.6516V15H25.2316C25.2316 15 25.2116 14.8733 25.1716 14.62C25.1449 14.3533 25.1182 14.02 25.0916 13.62C25.0649 13.22 25.0516 12.8267 25.0516 12.44V5.06ZM29.3047 5.06H37.0247V7.08H29.3047V5.06ZM31.8647 2.34H34.4647V15H31.8647V2.34ZM41.6566 0.699999V2.98H38.6366V0.699999H41.6566ZM38.8366 5.06H41.4366V15H38.8366V5.06ZM44.0281 5.06H46.6281V15H44.0281V5.06ZM51.2481 4.84C51.8615 4.84 52.4281 4.92 52.9481 5.08C53.4681 5.24 53.9215 5.48667 54.3081 5.82C54.6948 6.15333 54.9948 6.58 55.2081 7.1C55.4215 7.60667 55.5281 8.21333 55.5281 8.92V15H52.9281V9.38C52.9281 8.54 52.7215 7.92667 52.3081 7.54C51.9081 7.14 51.2481 6.94 50.3281 6.94C49.6348 6.94 49.0081 7.07333 48.4481 7.34C47.8881 7.60667 47.4348 7.94667 47.0881 8.36C46.7415 8.76 46.5415 9.18 46.4881 9.62L46.4681 8.6C46.5348 8.13333 46.6881 7.68 46.9281 7.24C47.1681 6.8 47.4881 6.4 47.8881 6.04C48.3015 5.66667 48.7881 5.37333 49.3481 5.16C49.9081 4.94667 50.5415 4.84 51.2481 4.84ZM57.4953 11.7H59.8953C60.042 12.1533 60.342 12.5267 60.7953 12.82C61.262 13.1 61.8686 13.24 62.6153 13.24C63.122 13.24 63.5153 13.1933 63.7953 13.1C64.0753 13.0067 64.2686 12.8733 64.3753 12.7C64.482 12.5133 64.5353 12.3067 64.5353 12.08C64.5353 11.8 64.4486 11.5867 64.2753 11.44C64.102 11.28 63.8353 11.1533 63.4753 11.06C63.1153 10.9667 62.6553 10.88 62.0953 10.8C61.5353 10.7067 60.9953 10.5933 60.4753 10.46C59.9553 10.3267 59.4953 10.1533 59.0953 9.94C58.6953 9.71333 58.3753 9.43333 58.1353 9.1C57.9086 8.75333 57.7953 8.33333 57.7953 7.84C57.7953 7.36 57.9086 6.93333 58.1353 6.56C58.3753 6.18667 58.702 5.87333 59.1153 5.62C59.542 5.36667 60.0353 5.17333 60.5953 5.04C61.1686 4.90667 61.782 4.84 62.4353 4.84C63.422 4.84 64.242 4.98667 64.8953 5.28C65.5486 5.56 66.0353 5.96 66.3553 6.48C66.6886 6.98667 66.8553 7.57333 66.8553 8.24H64.5553C64.4486 7.74667 64.2353 7.39333 63.9153 7.18C63.5953 6.95333 63.102 6.84 62.4353 6.84C61.782 6.84 61.2886 6.94 60.9553 7.14C60.622 7.34 60.4553 7.61333 60.4553 7.96C60.4553 8.24 60.5553 8.46 60.7553 8.62C60.9686 8.76667 61.2753 8.88667 61.6753 8.98C62.0886 9.07333 62.602 9.17333 63.2153 9.28C63.7353 9.38667 64.2286 9.50667 64.6953 9.64C65.1753 9.77333 65.602 9.94667 65.9753 10.16C66.3486 10.36 66.642 10.6333 66.8553 10.98C67.082 11.3133 67.1953 11.74 67.1953 12.26C67.1953 12.9 67.0086 13.44 66.6353 13.88C66.2753 14.32 65.7553 14.66 65.0753 14.9C64.3953 15.1267 63.582 15.24 62.6353 15.24C61.7953 15.24 61.0686 15.1533 60.4553 14.98C59.8553 14.7933 59.3553 14.56 58.9553 14.28C58.5553 13.9867 58.242 13.68 58.0153 13.36C57.802 13.0267 57.6553 12.7133 57.5753 12.42C57.4953 12.1267 57.4686 11.8867 57.4953 11.7Z" fill="black"/>
<path d="M99.0621 2.5345C99.3843 1.66389 100.616 1.66389 100.938 2.53451L102.001 5.40803C102.102 5.68175 102.318 5.89756 102.592 5.99885L105.465 7.06215C106.336 7.38431 106.336 8.61569 105.465 8.93785L102.592 10.0012C102.318 10.1024 102.102 10.3182 102.001 10.592L100.938 13.4655C100.616 14.3361 99.3843 14.3361 99.0621 13.4655L97.9988 10.592C97.8976 10.3182 97.6818 10.1024 97.408 10.0012L94.5345 8.93785C93.6639 8.61569 93.6639 7.38431 94.5345 7.06215L97.408 5.99885C97.6818 5.89756 97.8976 5.68175 97.9988 5.40803L99.0621 2.5345Z" fill="black"/>
</svg>
